<svg id="Layer_1" data-name="Layer 1" xmlns="http://www.w3.org/2000/svg" xmlns:xlink="http://www.w3.org/1999/xlink" viewBox="0 0 80.26 41.15"><defs><style>.cls-1{fill:url(#linear-gradient);}.cls-2{fill:url(#linear-gradient-2);}</style><linearGradient id="linear-gradient" x1="134.61" y1="235.15" x2="175.19" y2="206.75" gradientTransform="matrix(1, 0, 0, -1, 0, 422)" gradientUnits="userSpaceOnUse"><stop offset="0.07" stop-color="#56798f"/><stop offset="0.12" stop-color="#69899d"/><stop offset="0.21" stop-color="#9cb2c2"/><stop offset="0.33" stop-color="#e6eff9"/><stop offset="0.36" stop-color="#e3ecf7"/><stop offset="0.39" stop-color="#d8e3ef"/><stop offset="0.42" stop-color="#c6d5e2"/><stop offset="0.45" stop-color="#b3c5d5"/><stop offset="0.45" stop-color="#b2c4d4"/><stop offset="0.48" stop-color="#8397a5"/><stop offset="0.52" stop-color="#5d757f"/><stop offset="0.55" stop-color="#435c65"/><stop offset="0.58" stop-color="#334c55"/><stop offset="0.61" stop-color="#2d474f"/><stop offset="0.64" stop-color="#405861"/><stop offset="0.7" stop-color="#73868f"/><stop offset="0.8" stop-color="#c3ced8"/><stop offset="0.83" stop-color="#dfe7f1"/><stop offset="0.85" stop-color="#d3dbe4"/><stop offset="0.89" stop-color="#b3bac2"/><stop offset="0.94" stop-color="#8f949b"/></linearGradient><linearGradient id="linear-gradient-2" x1="124.93" y1="227.98" x2="175.53" y2="192.55" xlink:href="#linear-gradient"/></defs><title>sm_grad_mount</title><path class="cls-1" d="M140.17,191l-1.71,5.74,8-7.64-1,7.79,3.06-6.22c.55,3.08,1.39,7.31,1.93,10.39.64-2.55,1.71-7.73,2.35-10.27l5,9.45.51-10.55a39.39,39.39,0,0,0,4,.95c.87.8,13.15,11.84,18.73,16.25-4.48-5.53-9.22-10.79-14-15.95s-9.78-10.21-14.78-15.21l-1.3-1.3-1.34,1.27c-4.56,4.31-9.08,8.66-13.45,13.17-2.2,2.24-4.35,4.53-6.49,6.84s-4.22,4.67-6.22,7.13C125.64,201.28,137.08,192.76,140.17,191Z" transform="translate(-110.12 -174.43)"/><path class="cls-2" d="M170.38,212.57c-6.85-.74-13.43-3.26-20.27-5.46a88,88,0,0,0-10.59-2.74,35.89,35.89,0,0,0-11.14-.33,27.38,27.38,0,0,0-10.53,3.57,22.52,22.52,0,0,0-7.73,7.64A27.1,27.1,0,0,1,128.66,207c6.84-.39,13.56,1.57,20.29,3.75s13.74,4.61,21.23,4.8a31.33,31.33,0,0,0,11-1.52,23.15,23.15,0,0,0,9.2-5.79C184.34,212.28,177.2,213.35,170.38,212.57Z" transform="translate(-110.12 -174.43)"/></svg>