<?xml version="1.0" encoding="utf-8"?>
<!-- Generator: Adobe Illustrator 16.0.0, SVG Export Plug-In . SVG Version: 6.00 Build 0)  -->
<!DOCTYPE svg PUBLIC "-//W3C//DTD SVG 1.1//EN" "http://www.w3.org/Graphics/SVG/1.1/DTD/svg11.dtd">
<svg version="1.1" id="Layer_1" xmlns="http://www.w3.org/2000/svg" xmlns:xlink="http://www.w3.org/1999/xlink" x="0px" y="0px"
	 width="512px" height="512px" viewBox="0 0 512 512" enable-background="new 0 0 512 512" xml:space="preserve">
<g>
	<path d="M391.283,110.258c9.895,3.354,14.162,6.564,14.162,11.649c0,5.359-5.209,8.301-12.809,8.301
		c-5.461,0-10.568-1.089-15.035-2.674c-1.904-0.664-3.975-0.502-5.754,0.443c-1.777,0.945-3.074,2.596-3.557,4.536l-0.129,0.492
		c-1.131,4.327,1.357,8.772,5.625,10.105c4.525,1.391,9.896,2.386,15.361,2.645v6.161c0,3.621,2.908,6.548,6.533,6.548
		c3.619,0,6.563-2.936,6.563-6.566v-7.081c15.424-2.692,23.834-12.862,23.834-24.778c0-12.053-6.406-19.418-22.348-25.045
		c-11.381-4.283-16.072-7.091-16.072-11.511c0-3.744,2.814-7.503,11.512-7.503c5.141,0,9.283,0.864,12.547,1.909
		c1.779,0.564,3.719,0.355,5.34-0.552c1.646-0.914,2.846-2.44,3.295-4.259l0.262-0.948c1.035-4.114-1.424-8.301-5.496-9.384
		c-3.363-0.89-7.344-1.544-12.191-1.763v-5.222c0-3.622-2.945-6.558-6.568-6.558c-3.621,0-6.564,2.936-6.564,6.558v6.158
		c-14.326,2.813-22.604,12.054-22.604,23.843C367.189,98.744,376.957,105.438,391.283,110.258z"/>
	<path d="M396.617,199.347c52.678,0,95.521-42.841,95.521-95.509c0-52.661-42.844-95.515-95.521-95.515
		c-52.645,0-95.49,42.854-95.49,95.515C301.127,156.506,343.973,199.347,396.617,199.347z M396.617,40.854
		c34.729,0,62.99,28.254,62.99,62.983c0,34.73-28.262,62.984-62.99,62.984c-34.695,0-62.959-28.254-62.959-62.984
		C333.658,69.108,361.922,40.854,396.617,40.854z"/>
	<path d="M403.73,399.326c-11.381-4.286-16.072-7.1-16.072-11.521c0-3.734,2.814-7.493,11.512-7.493
		c4.916,0,8.928,0.799,12.16,1.778c1.908,0.581,3.943,0.355,5.66-0.624c1.744-0.961,3.006-2.602,3.492-4.526l0.131-0.486
		c1.035-4.105-1.424-8.292-5.496-9.384c-3.363-0.89-7.344-1.538-12.191-1.763v-5.216c0-3.621-2.945-6.555-6.568-6.555
		c-3.621,0-6.564,2.934-6.564,6.555v6.152c-14.326,2.822-22.604,12.054-22.604,23.849c0,12.983,9.768,19.669,24.094,24.495
		c9.895,3.355,14.162,6.565,14.162,11.65c0,5.36-5.209,8.302-12.809,8.302c-5.461,0-10.568-1.092-15.035-2.676
		c-1.904-0.662-3.975-0.5-5.754,0.445c-1.777,0.945-3.074,2.586-3.557,4.535l-0.129,0.494c-1.131,4.323,1.357,8.763,5.625,10.088
		c4.525,1.407,9.896,2.402,15.361,2.652v6.167c0,3.622,2.908,6.548,6.533,6.548c3.619,0,6.563-2.933,6.563-6.563v-7.082
		c15.424-2.683,23.834-12.861,23.834-24.778C426.078,412.316,419.672,404.951,403.73,399.326z"/>
	<path d="M396.617,312.655c-52.645,0-95.49,42.838-95.49,95.506c0,52.67,42.846,95.516,95.49,95.516
		c52.678,0,95.521-42.846,95.521-95.516C492.139,355.493,449.295,312.655,396.617,312.655z M396.617,471.154
		c-34.695,0-62.959-28.263-62.959-62.993c0-34.729,28.264-62.983,62.959-62.983c34.729,0,62.99,28.254,62.99,62.983
		C459.607,442.892,431.346,471.154,396.617,471.154z"/>
	<path d="M226.814,51.056c-1.842-1.154-4.268-0.889-5.785,0.654c-1.584,1.563-1.553,3.793-0.748,5.83
		c6.826,17.171,11.094,29.104,11.094,29.104c-18.207,1.722-35.508,8.682-50.057,20.461c-19.498,15.772-31.689,38.183-34.311,63.105
		c-0.678,6.701,4.174,12.709,10.863,13.411c0.455,0.041,0.875,0.065,1.297,0.065c6.176,0,11.443-4.648,12.123-10.913
		c1.941-18.448,10.932-35.038,25.355-46.702c9.959-8.045,21.695-12.862,34.018-14.584c0,0-4.332,15.657-7.924,26.734
		c-0.68,2.068-0.551,4.324,1.066,5.763c1.621,1.447,4.074,1.568,5.82,0.314l56.656-39.821c2.877-1.996,4.463-5.256,4.4-8.69
		c-0.131-3.444-1.973-6.598-4.885-8.408L226.814,51.056z"/>
	<path d="M109.98,249.403c-9.766-3.662-13.771-6.07-13.771-9.846c0-3.203,2.422-6.411,9.859-6.411c4.205,0,7.631,0.678,10.381,1.526
		c1.648,0.486,3.395,0.3,4.85-0.533c1.488-0.824,2.557-2.222,2.975-3.872l0.131-0.421c0.906-3.507-1.197-7.088-4.723-8.026
		c-2.846-0.752-6.27-1.311-10.414-1.494v-4.474c0-3.095-2.52-5.6-5.59-5.6c-3.107,0-5.627,2.505-5.627,5.6v5.272
		c-12.223,2.401-19.336,10.307-19.336,20.38c0,11.108,8.342,16.823,20.596,20.947c8.473,2.86,12.129,5.609,12.129,9.952
		c0,4.583-4.467,7.105-10.963,7.105c-4.658,0-9.059-0.938-12.84-2.289c-1.615-0.574-3.426-0.428-4.916,0.381
		c-1.518,0.801-2.65,2.208-3.07,3.871l-0.098,0.431c-0.938,3.702,1.164,7.502,4.82,8.625c3.846,1.204,8.436,2.044,13.127,2.263
		v5.271c0,3.088,2.49,5.603,5.594,5.603s5.594-2.515,5.594-5.618v-6.056c13.164-2.296,20.373-10.995,20.373-21.182
		C129.061,260.503,123.563,254.214,109.98,249.403z"/>
	<path d="M187.914,256.953c0-46.329-37.703-84.025-84.043-84.025c-46.307,0-84.01,37.696-84.01,84.025
		c0,46.331,37.703,84.028,84.01,84.028C150.211,340.981,187.914,303.284,187.914,256.953z M103.871,308.45
		c-28.393,0-51.479-23.097-51.479-51.497c0-28.397,23.086-51.495,51.479-51.495c28.424,0,51.512,23.098,51.512,51.495
		C155.383,285.354,132.295,308.45,103.871,308.45z"/>
	<path d="M226.814,461.655c-1.842,1.155-4.268,0.89-5.785-0.655c-1.584-1.56-1.553-3.79-0.748-5.827
		c6.826-17.173,11.094-29.105,11.094-29.105c-18.207-1.722-35.508-8.682-50.057-20.461c-19.498-15.772-31.689-38.181-34.311-63.105
		c-0.678-6.701,4.174-12.707,10.863-13.411c0.455-0.041,0.875-0.065,1.297-0.065c6.176,0,11.443,4.648,12.123,10.915
		c1.941,18.448,10.932,35.036,25.355,46.702c9.959,8.043,21.695,12.862,34.018,14.584c0,0-4.332-15.659-7.924-26.734
		c-0.68-2.07-0.551-4.326,1.066-5.765c1.621-1.447,4.074-1.568,5.82-0.315l56.656,39.822c2.877,1.999,4.463,5.256,4.4,8.691
		c-0.131,3.443-1.973,6.598-4.885,8.406L226.814,461.655z"/>
</g>
</svg>
